<svg width="160" height="160" viewBox="0 0 160 160" fill="none" xmlns="http://www.w3.org/2000/svg">
<path d="M0 16C0 7.16345 7.16344 0 16 0H144C152.837 0 160 7.16344 160 16V144C160 152.837 152.837 160 144 160H16C7.16345 160 0 152.837 0 144V16Z" fill="#2B3A82"/>
<mask id="mask0_60_142" style="mask-type:alpha" maskUnits="userSpaceOnUse" x="64" y="49" width="32" height="32">
<rect x="64" y="49" width="32" height="32" fill="#D9D9D9"/>
</mask>
<g mask="url(#mask0_60_142)">
<path d="M71.0768 76.3334C70.4033 76.3334 69.8332 76.1001 69.3665 75.6334C68.8998 75.1667 68.6665 74.5966 68.6665 73.9231V56.0771C68.6665 55.4035 68.8998 54.8334 69.3665 54.3667C69.8332 53.9001 70.4033 53.6667 71.0768 53.6667H88.9228C89.5964 53.6667 90.1665 53.9001 90.6332 54.3667C91.0998 54.8334 91.3332 55.4035 91.3332 56.0771V73.9231C91.3332 74.5966 91.0998 75.1667 90.6332 75.6334C90.1665 76.1001 89.5964 76.3334 88.9228 76.3334H71.0768ZM71.0768 74.3334H88.9228C89.0255 74.3334 89.1195 74.2906 89.2048 74.2051C89.2904 74.1197 89.3332 74.0257 89.3332 73.9231V56.0771C89.3332 55.9744 89.2904 55.8804 89.2048 55.7951C89.1195 55.7095 89.0255 55.6667 88.9228 55.6667H71.0768C70.9742 55.6667 70.8802 55.7095 70.7948 55.7951C70.7093 55.8804 70.6665 55.9744 70.6665 56.0771V73.9231C70.6665 74.0257 70.7093 74.1197 70.7948 74.2051C70.8802 74.2906 70.9742 74.3334 71.0768 74.3334ZM72.9998 71.3334H87.1022L82.7178 65.4874L78.9742 70.3591L76.3075 66.9487L72.9998 71.3334Z" fill="white"/>
</g>
<path d="M58.9859 103.07C58.9859 102.836 58.9495 102.628 58.8766 102.445C58.8089 102.263 58.6865 102.096 58.5094 101.945C58.3323 101.794 58.0823 101.648 57.7594 101.508C57.4417 101.362 57.0354 101.214 56.5406 101.062C55.999 100.896 55.499 100.711 55.0406 100.508C54.5875 100.299 54.1917 100.06 53.8531 99.7891C53.5146 99.513 53.2516 99.1979 53.0641 98.8438C52.8766 98.4844 52.7828 98.0703 52.7828 97.6016C52.7828 97.138 52.8792 96.7161 53.0719 96.3359C53.2698 95.9557 53.5484 95.6276 53.9078 95.3516C54.2724 95.0703 54.7021 94.8542 55.1969 94.7031C55.6917 94.5469 56.2385 94.4688 56.8375 94.4688C57.6812 94.4688 58.4078 94.625 59.0172 94.9375C59.6318 95.25 60.1031 95.6693 60.4312 96.1953C60.7646 96.7214 60.9312 97.3021 60.9312 97.9375H58.9859C58.9859 97.5625 58.9052 97.2318 58.7437 96.9453C58.5875 96.6536 58.3479 96.4245 58.025 96.2578C57.7073 96.0911 57.3036 96.0078 56.8141 96.0078C56.3505 96.0078 55.9651 96.0781 55.6578 96.2188C55.3505 96.3594 55.1214 96.5495 54.9703 96.7891C54.8193 97.0286 54.7437 97.2995 54.7437 97.6016C54.7437 97.8151 54.7932 98.0104 54.8922 98.1875C54.9911 98.3594 55.1422 98.5208 55.3453 98.6719C55.5484 98.8177 55.8036 98.9557 56.1109 99.0859C56.4182 99.2161 56.7802 99.3411 57.1969 99.4609C57.8271 99.6484 58.3766 99.8568 58.8453 100.086C59.3141 100.31 59.7047 100.565 60.0172 100.852C60.3297 101.138 60.5641 101.464 60.7203 101.828C60.8766 102.188 60.9547 102.596 60.9547 103.055C60.9547 103.534 60.8583 103.966 60.6656 104.352C60.4729 104.732 60.1969 105.057 59.8375 105.328C59.4833 105.594 59.0562 105.799 58.5562 105.945C58.0615 106.086 57.5094 106.156 56.9 106.156C56.3531 106.156 55.8141 106.083 55.2828 105.938C54.7568 105.792 54.2776 105.57 53.8453 105.273C53.413 104.971 53.0693 104.596 52.8141 104.148C52.5589 103.695 52.4312 103.167 52.4312 102.562H54.3922C54.3922 102.932 54.4547 103.247 54.5797 103.508C54.7099 103.768 54.8896 103.982 55.1187 104.148C55.3479 104.31 55.6135 104.43 55.9156 104.508C56.2229 104.586 56.551 104.625 56.9 104.625C57.3583 104.625 57.7411 104.56 58.0484 104.43C58.3609 104.299 58.5953 104.117 58.7516 103.883C58.9078 103.648 58.9859 103.378 58.9859 103.07ZM64.6172 97.5469V106H62.7266V97.5469H64.6172ZM62.6016 95.3281C62.6016 95.0417 62.6953 94.8047 62.8828 94.6172C63.0755 94.4245 63.3411 94.3281 63.6797 94.3281C64.013 94.3281 64.276 94.4245 64.4688 94.6172C64.6615 94.8047 64.7578 95.0417 64.7578 95.3281C64.7578 95.6094 64.6615 95.8438 64.4688 96.0312C64.276 96.2188 64.013 96.3125 63.6797 96.3125C63.3411 96.3125 63.0755 96.2188 62.8828 96.0312C62.6953 95.8438 62.6016 95.6094 62.6016 95.3281ZM68.6469 99.3516V106H66.7641V97.5469H68.5375L68.6469 99.3516ZM68.3109 101.461L67.7016 101.453C67.7068 100.854 67.7901 100.305 67.9516 99.8047C68.1182 99.3047 68.3474 98.875 68.6391 98.5156C68.9359 98.1562 69.2901 97.8802 69.7016 97.6875C70.113 97.4896 70.5714 97.3906 71.0766 97.3906C71.4828 97.3906 71.85 97.4479 72.1781 97.5625C72.5115 97.6719 72.7953 97.8516 73.0297 98.1016C73.2693 98.3516 73.4516 98.6771 73.5766 99.0781C73.7016 99.474 73.7641 99.9609 73.7641 100.539V106H71.8734V100.531C71.8734 100.125 71.8135 99.8047 71.6937 99.5703C71.5792 99.3307 71.4099 99.1615 71.1859 99.0625C70.9672 98.9583 70.6937 98.9062 70.3656 98.9062C70.0427 98.9062 69.7536 98.974 69.4984 99.1094C69.2432 99.2448 69.0271 99.4297 68.85 99.6641C68.6781 99.8984 68.5453 100.169 68.4516 100.477C68.3578 100.784 68.3109 101.112 68.3109 101.461ZM82.4172 106H80.5344V96.7344C80.5344 96.1042 80.6516 95.5755 80.8859 95.1484C81.1255 94.7161 81.4667 94.3906 81.9094 94.1719C82.3521 93.9479 82.8755 93.8359 83.4797 93.8359C83.6672 93.8359 83.8521 93.849 84.0344 93.875C84.2167 93.8958 84.3937 93.9297 84.5656 93.9766L84.5187 95.4297C84.4146 95.4036 84.3 95.3854 84.175 95.375C84.0552 95.3646 83.925 95.3594 83.7844 95.3594C83.4979 95.3594 83.2505 95.4141 83.0422 95.5234C82.8391 95.6276 82.6828 95.7812 82.5734 95.9844C82.4693 96.1875 82.4172 96.4375 82.4172 96.7344V106ZM84.1594 97.5469V98.9219H79.2375V97.5469H84.1594ZM85.2672 101.867V101.688C85.2672 101.078 85.3557 100.513 85.5328 99.9922C85.7099 99.4661 85.9651 99.0104 86.2984 98.625C86.637 98.2344 87.0484 97.9323 87.5328 97.7188C88.0224 97.5 88.5745 97.3906 89.1891 97.3906C89.8089 97.3906 90.3609 97.5 90.8453 97.7188C91.3349 97.9323 91.749 98.2344 92.0875 98.625C92.426 99.0104 92.6839 99.4661 92.8609 99.9922C93.038 100.513 93.1266 101.078 93.1266 101.688V101.867C93.1266 102.477 93.038 103.042 92.8609 103.562C92.6839 104.083 92.426 104.539 92.0875 104.93C91.749 105.315 91.3375 105.617 90.8531 105.836C90.3688 106.049 89.8193 106.156 89.2047 106.156C88.5849 106.156 88.0302 106.049 87.5406 105.836C87.0563 105.617 86.6448 105.315 86.3063 104.93C85.9677 104.539 85.7099 104.083 85.5328 103.562C85.3557 103.042 85.2672 102.477 85.2672 101.867ZM87.15 101.688V101.867C87.15 102.247 87.1891 102.607 87.2672 102.945C87.3453 103.284 87.4677 103.581 87.6344 103.836C87.801 104.091 88.0146 104.292 88.275 104.438C88.5354 104.583 88.8453 104.656 89.2047 104.656C89.5536 104.656 89.8557 104.583 90.1109 104.438C90.3714 104.292 90.5849 104.091 90.7516 103.836C90.9182 103.581 91.0406 103.284 91.1188 102.945C91.2021 102.607 91.2438 102.247 91.2438 101.867V101.688C91.2438 101.312 91.2021 100.958 91.1188 100.625C91.0406 100.286 90.9156 99.987 90.7438 99.7266C90.5771 99.4661 90.3635 99.263 90.1031 99.1172C89.8479 98.9661 89.5432 98.8906 89.1891 98.8906C88.8349 98.8906 88.5276 98.9661 88.2672 99.1172C88.012 99.263 87.801 99.4661 87.6344 99.7266C87.4677 99.987 87.3453 100.286 87.2672 100.625C87.1891 100.958 87.15 101.312 87.15 101.688ZM98.6797 97.5469V98.9219H93.9141V97.5469H98.6797ZM95.2891 95.4766H97.1719V103.664C97.1719 103.924 97.2083 104.125 97.2812 104.266C97.3594 104.401 97.4661 104.492 97.6016 104.539C97.737 104.586 97.8958 104.609 98.0781 104.609C98.2083 104.609 98.3333 104.602 98.4531 104.586C98.5729 104.57 98.6693 104.555 98.7422 104.539L98.75 105.977C98.5938 106.023 98.4115 106.065 98.2031 106.102C98 106.138 97.7656 106.156 97.5 106.156C97.0677 106.156 96.6849 106.081 96.3516 105.93C96.0182 105.773 95.7578 105.521 95.5703 105.172C95.3828 104.823 95.2891 104.359 95.2891 103.781V95.4766ZM99.6859 101.867V101.688C99.6859 101.078 99.7745 100.513 99.9516 99.9922C100.129 99.4661 100.384 99.0104 100.717 98.625C101.056 98.2344 101.467 97.9323 101.952 97.7188C102.441 97.5 102.993 97.3906 103.608 97.3906C104.228 97.3906 104.78 97.5 105.264 97.7188C105.754 97.9323 106.168 98.2344 106.506 98.625C106.845 99.0104 107.103 99.4661 107.28 99.9922C107.457 100.513 107.545 101.078 107.545 101.688V101.867C107.545 102.477 107.457 103.042 107.28 103.562C107.103 104.083 106.845 104.539 106.506 104.93C106.168 105.315 105.756 105.617 105.272 105.836C104.787 106.049 104.238 106.156 103.623 106.156C103.004 106.156 102.449 106.049 101.959 105.836C101.475 105.617 101.064 105.315 100.725 104.93C100.386 104.539 100.129 104.083 99.9516 103.562C99.7745 103.042 99.6859 102.477 99.6859 101.867ZM101.569 101.688V101.867C101.569 102.247 101.608 102.607 101.686 102.945C101.764 103.284 101.886 103.581 102.053 103.836C102.22 104.091 102.433 104.292 102.694 104.438C102.954 104.583 103.264 104.656 103.623 104.656C103.972 104.656 104.274 104.583 104.53 104.438C104.79 104.292 105.004 104.091 105.17 103.836C105.337 103.581 105.459 103.284 105.537 102.945C105.621 102.607 105.662 102.247 105.662 101.867V101.688C105.662 101.312 105.621 100.958 105.537 100.625C105.459 100.286 105.334 99.987 105.162 99.7266C104.996 99.4661 104.782 99.263 104.522 99.1172C104.267 98.9661 103.962 98.8906 103.608 98.8906C103.254 98.8906 102.946 98.9661 102.686 99.1172C102.431 99.263 102.22 99.4661 102.053 99.7266C101.886 99.987 101.764 100.286 101.686 100.625C101.608 100.958 101.569 101.312 101.569 101.688Z" fill="white"/>
</svg>
